{
    "asset" : {
        "generator" : "Khronos glTF Blender I/O v1.8.19",
        "version" : "2.0"
    },
    "scene" : 0,
    "scenes" : [
        {
            "name" : "Scene",
            "nodes" : [
                0
            ]
        }
    ],
    "nodes" : [
        {
            "mesh" : 0,
            "name" : "\u5e8a\u5934\u67dc10"
        }
    ],
    "materials" : [
        {
            "doubleSided" : true,
            "name" : "Mat3d66-534276-12-492",
            "pbrMetallicRoughness" : {
                "baseColorFactor" : [
                    0.274509996175766,
                    0.274509996175766,
                    0.274509996175766,
                    1
                ],
                "metallicFactor" : 0,
                "roughnessFactor" : 0.7755905389785767
            }
        },
        {
            "doubleSided" : true,
            "name" : "Mat3d66-534276-10-561",
            "pbrMetallicRoughness" : {
                "baseColorFactor" : [
                    0.16484642028808594,
                    0.16484642028808594,
                    0.16484642028808594,
                    1
                ],
                "metallicFactor" : 0,
                "roughnessFactor" : 0.7913385629653931
            }
        },
        {
            "doubleSided" : true,
            "name" : "Mat3d66-534276-11-401",
            "pbrMetallicRoughness" : {
                "baseColorFactor" : [
                    0.313726007938385,
                    0.313726007938385,
                    0.313726007938385,
                    1
                ],
                "metallicFactor" : 0,
                "roughnessFactor" : 0.751968502998352
            }
        }
    ],
    "meshes" : [
        {
            "name" : "Obj3d66-534276-58-711",
            "primitives" : [
                {
                    "attributes" : {
                        "POSITION" : 0,
                        "NORMAL" : 1,
                        "TEXCOORD_0" : 2
                    },
                    "indices" : 3,
                    "material" : 0
                },
                {
                    "attributes" : {
                        "POSITION" : 4,
                        "NORMAL" : 5,
                        "TEXCOORD_0" : 6
                    },
                    "indices" : 7,
                    "material" : 1
                },
                {
                    "attributes" : {
                        "POSITION" : 8,
                        "NORMAL" : 9,
                        "TEXCOORD_0" : 10
                    },
                    "indices" : 11,
                    "material" : 2
                }
            ]
        }
    ],
    "accessors" : [
        {
            "bufferView" : 0,
            "componentType" : 5126,
            "count" : 492,
            "max" : [
                0.008848339319229126,
                0.18565936386585236,
                0.08402427285909653
            ],
            "min" : [
                0.0012821853160858154,
                0.09422419965267181,
                0.06986381858587265
            ],
            "type" : "VEC3"
        },
        {
            "bufferView" : 1,
            "componentType" : 5126,
            "count" : 492,
            "type" : "VEC3"
        },
        {
            "bufferView" : 2,
            "componentType" : 5126,
            "count" : 492,
            "type" : "VEC2"
        },
        {
            "bufferView" : 3,
            "componentType" : 5123,
            "count" : 1536,
            "type" : "SCALAR"
        },
        {
            "bufferView" : 4,
            "componentType" : 5126,
            "count" : 43404,
            "max" : [
                0.1082538366317749,
                0.24086014926433563,
                0.07400716841220856
            ],
            "min" : [
                -0.1082538366317749,
                0,
                -0.08402427285909653
            ],
            "type" : "VEC3"
        },
        {
            "bufferView" : 5,
            "componentType" : 5126,
            "count" : 43404,
            "type" : "VEC3"
        },
        {
            "bufferView" : 6,
            "componentType" : 5126,
            "count" : 43404,
            "type" : "VEC2"
        },
        {
            "bufferView" : 7,
            "componentType" : 5123,
            "count" : 97596,
            "type" : "SCALAR"
        },
        {
            "bufferView" : 8,
            "componentType" : 5126,
            "count" : 496,
            "max" : [
                0.10241368412971497,
                0.23544366657733917,
                0.07223312556743622
            ],
            "min" : [
                -0.1027391254901886,
                0.04345548897981644,
                0.06505733728408813
            ],
            "type" : "VEC3"
        },
        {
            "bufferView" : 9,
            "componentType" : 5126,
            "count" : 496,
            "type" : "VEC3"
        },
        {
            "bufferView" : 10,
            "componentType" : 5126,
            "count" : 496,
            "type" : "VEC2"
        },
        {
            "bufferView" : 11,
            "componentType" : 5123,
            "count" : 768,
            "type" : "SCALAR"
        }
    ],
    "bufferViews" : [
        {
            "buffer" : 0,
            "byteLength" : 5904,
            "byteOffset" : 0
        },
        {
            "buffer" : 0,
            "byteLength" : 5904,
            "byteOffset" : 5904
        },
        {
            "buffer" : 0,
            "byteLength" : 3936,
            "byteOffset" : 11808
        },
        {
            "buffer" : 0,
            "byteLength" : 3072,
            "byteOffset" : 15744
        },
        {
            "buffer" : 0,
            "byteLength" : 520848,
            "byteOffset" : 18816
        },
        {
            "buffer" : 0,
            "byteLength" : 520848,
            "byteOffset" : 539664
        },
        {
            "buffer" : 0,
            "byteLength" : 347232,
            "byteOffset" : 1060512
        },
        {
            "buffer" : 0,
            "byteLength" : 195192,
            "byteOffset" : 1407744
        },
        {
            "buffer" : 0,
            "byteLength" : 5952,
            "byteOffset" : 1602936
        },
        {
            "buffer" : 0,
            "byteLength" : 5952,
            "byteOffset" : 1608888
        },
        {
            "buffer" : 0,
            "byteLength" : 3968,
            "byteOffset" : 1614840
        },
        {
            "buffer" : 0,
            "byteLength" : 1536,
            "byteOffset" : 1618808
        }
    ],
    "buffers" : [
        {
            "byteLength" : 1620344,
            "uri" : "data:application/octet-stream;base64,"
        }
    ]
}
